<svg xmlns="http://www.w3.org/2000/svg" width="68" height="95" viewBox="0 0 68 95" fill="none">
  <g clip-path="url(#clip0_4_3623)">
    <path d="M67.7102 90.4482C67.7102 92.9272 65.7037 94.942 63.2247 94.942L5.21977 95.0083C3.24648 95.0083 1.57167 93.7398 0.966412 91.9737C0.80888 91.5177 0.725968 91.0368 0.725968 90.5311L0.634766 6.88167C0.634766 4.40261 2.64122 2.38786 5.12028 2.38786L58.3826 2.32982L63.1252 2.32153C65.6042 2.32153 67.619 4.32799 67.619 6.80704L67.7102 90.4482Z" fill="url(#paint0_linear_4_3623)"/>
    <path d="M61.6989 89.9673L6.73685 90.0253C5.40197 90.0253 4.32412 88.9474 4.32412 87.6126L4.24121 9.76697C4.24121 8.43209 5.31906 7.35424 6.65394 7.35424L61.6077 7.2962C62.9426 7.2962 64.0204 8.37405 64.0204 9.70893L64.1033 87.5545C64.1116 88.8811 63.0338 89.9673 61.6989 89.9673Z" fill="white"/>
    <path d="M53.9804 13.7136L13.8927 13.7633C12.5661 13.7633 11.48 12.6855 11.48 11.3589L11.4717 4.67623C11.4717 3.34964 12.5495 2.2635 13.8761 2.2635L53.9721 2.22205C55.2987 2.22205 56.3848 3.2999 56.3848 4.62648L56.3931 11.3091C56.3848 12.6357 55.307 13.7136 53.9804 13.7136ZM13.8761 3.49059C13.2294 3.49059 12.6988 4.02123 12.6988 4.66793L12.7071 11.3506C12.7071 11.9973 13.2377 12.5279 13.8844 12.5279L53.9804 12.4865C54.6271 12.4865 55.1578 11.9559 55.1578 11.3091L55.1495 4.62648C55.1495 3.97977 54.6188 3.44914 53.9721 3.44914L13.8761 3.49059Z" fill="url(#paint1_linear_4_3623)"/>
    <path d="M52.8439 5.11564L15.4093 5.1571C14.9947 5.1571 14.6631 4.82545 14.6631 4.41089V0.787659C14.6631 0.373102 14.9947 0.0414557 15.4093 0.0414557L52.8356 0C53.2501 0 53.5818 0.331646 53.5818 0.746203V4.36944C53.5901 4.78399 53.2584 5.11564 52.8439 5.11564Z" fill="url(#paint2_linear_4_3623)"/>
    <path d="M15.4429 5.15708L52.8111 5.11562C53.2423 5.11562 53.5905 4.7674 53.5905 4.33626V2.56195L14.6553 2.60341V4.37771C14.6553 4.80885 15.0118 5.15708 15.4429 5.15708Z" fill="#58D6F4"/>
    <path d="M28.5758 81.2118L25.3423 61.6447L22.7223 70.1597L15.2271 70.168C14.7711 70.168 14.4062 69.8032 14.4062 69.3472C14.4062 68.8912 14.7711 68.5264 15.2271 68.5264L21.5201 68.5181L25.8397 54.4977L29.0733 74.1146L33.2686 60.6415L35.4989 67.0257L40.5234 54.846L45.4069 74.1643L47.2475 68.0206L52.6367 68.0123C53.0928 68.0123 53.4576 68.3771 53.4576 68.8331C53.4576 69.2892 53.0928 69.654 52.6367 69.654L48.4663 69.6623L45.2742 80.3164L40.1503 60.0528L35.3663 71.6355L33.3515 65.8732L28.5758 81.2118Z" fill="#58D6F4"/>
    <path d="M23.0213 43.4871L12.4832 43.4954C10.7835 43.4954 9.39061 42.1107 9.39061 40.411L9.37402 25.6777C9.37402 23.978 10.7586 22.5851 12.4583 22.5851L22.9964 22.5768C24.6961 22.5768 26.089 23.9614 26.089 25.6611L26.1056 40.3945C26.1056 42.0942 24.7209 43.4788 23.0213 43.4871ZM12.45 23.4805C11.2395 23.4805 10.2612 24.4672 10.2612 25.6777L10.2778 40.411C10.2778 41.6216 11.2644 42.5999 12.4749 42.5999L23.013 42.5916C24.2235 42.5916 25.2018 41.605 25.2018 40.3945L25.1853 25.6611C25.1853 24.4506 24.1986 23.4722 22.9881 23.4722L12.45 23.4805Z" fill="url(#paint3_linear_4_3623)"/>
    <path d="M17.739 40.6598C22.722 40.6515 24.2725 37.7745 24.2725 37.7745C24.0486 37.4926 23.7667 37.2439 23.3853 36.9951C22.0753 36.1411 21.0223 35.7763 20.5829 35.4115C20.1352 35.055 19.8864 34.5327 19.8864 34.5327L19.6128 34.6985C19.6128 34.6985 19.447 34.1264 19.5382 33.2558C19.5382 33.2558 19.9279 33.1563 20.2181 31.838C20.6824 31.9292 21.2296 30.7519 20.9726 30.3207C20.8068 30.0388 20.6078 30.0637 20.4668 30.1301C20.6078 29.5414 21.2462 26.283 17.7307 26.283C14.2153 26.283 14.8537 29.5414 15.003 30.1301C14.862 30.0637 14.663 30.0388 14.4972 30.3207C14.2402 30.7519 14.7957 31.9292 15.26 31.838C15.5502 33.1563 15.9481 33.2475 15.9481 33.2475C16.0476 34.1098 15.8735 34.6902 15.8735 34.6902L15.5999 34.5244C15.5999 34.5244 15.3512 35.0384 14.9035 35.4032C14.4557 35.768 13.4111 36.1411 12.1011 36.9951C11.7197 37.2439 11.4295 37.4926 11.2139 37.7745C11.2056 37.7911 12.7643 40.6681 17.739 40.6598Z" fill="url(#paint4_linear_4_3623)"/>
    <path d="M50.5557 27.2779L30.2673 27.3028C29.8859 27.3028 29.5791 26.996 29.5791 26.6146V26.4986C29.5791 26.1172 29.8859 25.8104 30.2673 25.8104L50.5557 25.7855C50.9371 25.7855 51.2439 26.0923 51.2439 26.4737V26.5898C51.2439 26.9712 50.9288 27.2779 50.5557 27.2779Z" fill="url(#paint5_linear_4_3623)"/>
    <path d="M43.0937 31.1415L30.2673 31.1581C29.8859 31.1581 29.5791 30.8513 29.5791 30.4699V30.3539C29.5791 29.9725 29.8859 29.6657 30.2673 29.6657L43.0937 29.6491C43.4751 29.6491 43.7818 29.9559 43.7818 30.3373V30.4534C43.7818 30.8348 43.4751 31.1415 43.0937 31.1415Z" fill="url(#paint6_linear_4_3623)"/>
    <path opacity="0.6" d="M57.5539 35.7348L30.2761 35.768C29.8947 35.768 29.5879 35.4612 29.5879 35.0798V34.9638C29.5879 34.5824 29.8947 34.2756 30.2761 34.2756L57.5539 34.2424C57.9353 34.2424 58.2421 34.5492 58.2421 34.9306V35.0467C58.2338 35.4281 57.927 35.7348 57.5539 35.7348Z" fill="url(#paint7_linear_4_3623)"/>
    <path opacity="0.6" d="M56.9649 48.6442L11.463 48.6939C11.0734 48.6939 10.75 48.3789 10.75 47.9809V47.9146C10.75 47.5249 11.0651 47.2015 11.463 47.2015L56.9649 47.1518C57.3546 47.1518 57.6779 47.4669 57.6779 47.8648V47.9312C57.6779 48.3291 57.3546 48.6442 56.9649 48.6442Z" fill="url(#paint8_linear_4_3623)"/>
    <path opacity="0.6" d="M57.5539 40.2452L30.2761 40.2784C29.8947 40.2784 29.5879 39.9716 29.5879 39.5902V39.4741C29.5879 39.0927 29.8947 38.786 30.2761 38.786L57.5539 38.7528C57.9353 38.7528 58.2421 39.0596 58.2421 39.441V39.5571C58.2421 39.9384 57.9353 40.2452 57.5539 40.2452Z" fill="url(#paint9_linear_4_3623)"/>
  </g>
  <defs>
    <linearGradient id="paint0_linear_4_3623" x1="-8.65392" y1="34.748" x2="76.9988" y2="62.5782" gradientUnits="userSpaceOnUse">
      <stop stop-color="#6CBCFC"/>
      <stop offset="0.1713" stop-color="#5EABFC"/>
      <stop offset="0.4084" stop-color="#509AFC"/>
      <stop offset="0.6698" stop-color="#4890FC"/>
      <stop offset="1" stop-color="#458DFC"/>
    </linearGradient>
    <linearGradient id="paint1_linear_4_3623" x1="-4.58984" y1="-21.375" x2="56.3866" y2="7.98973" gradientUnits="userSpaceOnUse">
      <stop stop-color="#CFE9FF"/>
      <stop offset="1" stop-color="#A1D6FB"/>
    </linearGradient>
    <linearGradient id="paint2_linear_4_3623" x1="14.6536" y1="2.57952" x2="53.5894" y2="2.57952" gradientUnits="userSpaceOnUse">
      <stop stop-color="#B0F4FF"/>
      <stop offset="1" stop-color="#69DCFC"/>
    </linearGradient>
    <linearGradient id="paint3_linear_4_3623" x1="14.7701" y1="29.2075" x2="24.5507" y2="41.8334" gradientUnits="userSpaceOnUse">
      <stop stop-color="#6CBCFC"/>
      <stop offset="1" stop-color="#458DFC"/>
    </linearGradient>
    <linearGradient id="paint4_linear_4_3623" x1="13.7085" y1="30.0293" x2="23.4892" y2="42.6553" gradientUnits="userSpaceOnUse">
      <stop stop-color="#B0F4FF"/>
      <stop offset="0.0994384" stop-color="#A1EFFE"/>
      <stop offset="0.2994" stop-color="#88E7FD"/>
      <stop offset="0.5095" stop-color="#77E1FD"/>
      <stop offset="0.7344" stop-color="#6CDDFC"/>
      <stop offset="1" stop-color="#69DCFC"/>
    </linearGradient>
    <linearGradient id="paint5_linear_4_3623" x1="29.5803" y1="26.551" x2="51.2395" y2="26.564" gradientUnits="userSpaceOnUse">
      <stop stop-color="#6CBCFC"/>
      <stop offset="1" stop-color="#458DFC"/>
    </linearGradient>
    <linearGradient id="paint6_linear_4_3623" x1="29.5842" y1="30.4036" x2="43.781" y2="30.4036" gradientUnits="userSpaceOnUse">
      <stop stop-color="#6CBCFC"/>
      <stop offset="1" stop-color="#458DFC"/>
    </linearGradient>
    <linearGradient id="paint7_linear_4_3623" x1="29.5894" y1="35.0098" x2="58.2375" y2="35.0098" gradientUnits="userSpaceOnUse">
      <stop stop-color="#6CBCFC"/>
      <stop offset="1" stop-color="#458DFC"/>
    </linearGradient>
    <linearGradient id="paint8_linear_4_3623" x1="10.7496" y1="47.9272" x2="57.6756" y2="47.9272" gradientUnits="userSpaceOnUse">
      <stop stop-color="#6CBCFC"/>
      <stop offset="1" stop-color="#458DFC"/>
    </linearGradient>
    <linearGradient id="paint9_linear_4_3623" x1="29.594" y1="39.5191" x2="58.2421" y2="39.5191" gradientUnits="userSpaceOnUse">
      <stop stop-color="#6CBCFC"/>
      <stop offset="1" stop-color="#458DFC"/>
    </linearGradient>
    <clipPath id="clip0_4_3623">
      <rect width="67.0754" height="95" fill="white" transform="translate(0.634766)"/>
    </clipPath>
  </defs>
</svg>