<svg xmlns="http://www.w3.org/2000/svg" width="70" height="95" viewBox="0 0 70 95" fill="none">
  <g clip-path="url(#clip0_4_3642)">
    <path d="M69.4225 4.31029V90.7055C69.4225 93.0896 67.4963 95.0158 65.1122 95.0158H4.31029C1.92621 95 0 93.0738 0 90.7055V4.31029C0 1.92621 1.92621 0 4.31029 0H65.128C67.4963 0 69.4225 1.92621 69.4225 4.31029Z" fill="url(#paint0_linear_4_3642)"/>
    <path d="M65 7.94666V87.0533C65 89.2363 63.3075 91 61.2126 91H7.78735C5.69252 90.9855 4 89.2218 4 87.0533V7.94666C4 5.76371 5.69252 4 7.78735 4H61.2265C63.3075 4 65 5.76371 65 7.94666Z" fill="url(#paint1_linear_4_3642)"/>
    <path d="M26.873 18.2516V22.183C26.873 22.4672 26.6519 22.6882 26.3677 22.6882H21.5522C21.268 22.6882 21.047 22.9093 21.047 23.1935V28.009C21.047 28.2932 20.8259 28.5142 20.5417 28.5142H16.6104C16.3262 28.5142 16.1051 28.2932 16.1051 28.009V23.1935C16.1051 22.9093 15.8841 22.6882 15.5999 22.6882H10.8002C10.516 22.6882 10.2949 22.4672 10.2949 22.183V18.2516C10.2949 17.9674 10.516 17.7464 10.8002 17.7464H15.6157C15.8999 17.7464 16.1209 17.5254 16.1209 17.2412V12.4256C16.1209 12.1415 16.342 11.9204 16.6262 11.9204H20.5575C20.8417 11.9204 21.0627 12.1415 21.0627 12.4256V17.2412C21.0627 17.5254 21.2838 17.7464 21.568 17.7464H26.3677C26.6519 17.7464 26.873 17.9674 26.873 18.2516Z" fill="url(#paint2_linear_4_3642)"/>
    <path opacity="0.5" d="M58.5766 39.6768H10.8477C10.5319 39.6768 10.2793 39.4242 10.2793 39.1084V37.2927C10.2793 36.9769 10.5319 36.7243 10.8477 36.7243H58.5766C58.8924 36.7243 59.145 36.9769 59.145 37.2927V39.1084C59.1292 39.4242 58.8924 39.6768 58.5766 39.6768Z" fill="url(#paint3_linear_4_3642)"/>
    <path d="M58.5775 17.0517H34.8946C34.5788 17.0517 34.3262 16.7991 34.3262 16.4833V14.6834C34.3262 14.3677 34.5788 14.1151 34.8946 14.1151H58.5775C58.8932 14.1151 59.1459 14.3677 59.1459 14.6834V16.4991C59.1301 16.7991 58.8932 17.0517 58.5775 17.0517Z" fill="url(#paint4_linear_4_3642)"/>
    <path opacity="0.5" d="M51.5673 24.725H34.8946C34.5788 24.725 34.3262 24.4724 34.3262 24.1566V22.3409C34.3262 22.0251 34.5788 21.7725 34.8946 21.7725H51.5673C51.8831 21.7725 52.1357 22.0251 52.1357 22.3409V24.1566C52.1199 24.4724 51.8831 24.725 51.5673 24.725Z" fill="url(#paint5_linear_4_3642)"/>
    <path opacity="0.5" d="M58.5766 48.2973H10.8477C10.5319 48.2973 10.2793 48.0447 10.2793 47.7289V45.9132C10.2793 45.5975 10.5319 45.3448 10.8477 45.3448H58.5766C58.8924 45.3448 59.145 45.5975 59.145 45.9132V47.7289C59.1292 48.0447 58.8924 48.2973 58.5766 48.2973Z" fill="url(#paint6_linear_4_3642)"/>
    <path opacity="0.5" d="M58.5766 56.9179H10.8477C10.5319 56.9179 10.2793 56.6653 10.2793 56.3495V54.5338C10.2793 54.2181 10.5319 53.9655 10.8477 53.9655H58.5766C58.8924 53.9655 59.145 54.2181 59.145 54.5338V56.3653C59.1292 56.6653 58.8924 56.9179 58.5766 56.9179Z" fill="url(#paint7_linear_4_3642)"/>
    <path opacity="0.5" d="M58.5766 65.5543H10.8477C10.5319 65.5543 10.2793 65.3017 10.2793 64.9859V63.1702C10.2793 62.8544 10.5319 62.6018 10.8477 62.6018H58.5766C58.8924 62.6018 59.145 62.8544 59.145 63.1702V64.9859C59.1292 65.3017 58.8924 65.5543 58.5766 65.5543Z" fill="url(#paint8_linear_4_3642)"/>
    <path opacity="0.5" d="M58.5766 74.1749H10.8477C10.5319 74.1749 10.2793 73.9223 10.2793 73.6065V71.7908C10.2793 71.475 10.5319 71.2224 10.8477 71.2224H58.5766C58.8924 71.2224 59.145 71.475 59.145 71.7908V73.6065C59.1292 73.9223 58.8924 74.1749 58.5766 74.1749Z" fill="url(#paint9_linear_4_3642)"/>
    <path opacity="0.5" d="M58.5766 82.7954H10.8477C10.5319 82.7954 10.2793 82.5428 10.2793 82.227V80.4113C10.2793 80.0956 10.5319 79.843 10.8477 79.843H58.5766C58.8924 79.843 59.145 80.0956 59.145 80.4113V82.227C59.1292 82.5428 58.8924 82.7954 58.5766 82.7954Z" fill="url(#paint10_linear_4_3642)"/>
    <path opacity="0.1" d="M69.4225 4.31029V90.7055C69.4225 93.0896 67.4963 95.0158 65.1122 95.0158H4.31029C1.92621 95 0 93.0738 0 90.7055V89.2056C37.0874 73.8906 54.3601 15.1571 58.2599 0H65.1122C67.4963 0 69.4225 1.92621 69.4225 4.31029Z" fill="#1A6FB5" fill-opacity="0.4"/>
  </g>
  <defs>
    <linearGradient id="paint0_linear_4_3642" x1="95" y1="126" x2="-6" y2="-5.5" gradientUnits="userSpaceOnUse">
      <stop offset="0.3061" stop-color="#5BA7FC"/>
      <stop offset="1" stop-color="#69B8FC"/>
    </linearGradient>
    <linearGradient id="paint1_linear_4_3642" x1="8.6241" y1="7.04564" x2="57.9385" y2="78.0313" gradientUnits="userSpaceOnUse">
      <stop offset="0.3061" stop-color="white"/>
      <stop offset="1" stop-color="white"/>
    </linearGradient>
    <linearGradient id="paint2_linear_4_3642" x1="10.0008" y1="9.50003" x2="25.0008" y2="34" gradientUnits="userSpaceOnUse">
      <stop stop-color="#B0F4FF"/>
      <stop offset="0.368525" stop-color="#80E4FD"/>
      <stop offset="1" stop-color="#6CDDFC"/>
    </linearGradient>
    <linearGradient id="paint3_linear_4_3642" x1="10.2915" y1="38.2072" x2="59.1364" y2="38.2072" gradientUnits="userSpaceOnUse">
      <stop stop-color="#6CBCFC"/>
      <stop offset="1" stop-color="#458DFC"/>
    </linearGradient>
    <linearGradient id="paint4_linear_4_3642" x1="34.3266" y1="15.5845" x2="59.1373" y2="15.5845" gradientUnits="userSpaceOnUse">
      <stop stop-color="#6CBCFC"/>
      <stop offset="1" stop-color="#458DFC"/>
    </linearGradient>
    <linearGradient id="paint5_linear_4_3642" x1="34.3266" y1="23.2616" x2="52.1274" y2="23.2616" gradientUnits="userSpaceOnUse">
      <stop stop-color="#6CBCFC"/>
      <stop offset="1" stop-color="#458DFC"/>
    </linearGradient>
    <linearGradient id="paint6_linear_4_3642" x1="10.2915" y1="46.8317" x2="59.1364" y2="46.8317" gradientUnits="userSpaceOnUse">
      <stop stop-color="#6CBCFC"/>
      <stop offset="1" stop-color="#458DFC"/>
    </linearGradient>
    <linearGradient id="paint7_linear_4_3642" x1="10.2915" y1="55.4562" x2="59.1364" y2="55.4562" gradientUnits="userSpaceOnUse">
      <stop stop-color="#6CBCFC"/>
      <stop offset="1" stop-color="#458DFC"/>
    </linearGradient>
    <linearGradient id="paint8_linear_4_3642" x1="10.2915" y1="64.0807" x2="59.1364" y2="64.0807" gradientUnits="userSpaceOnUse">
      <stop stop-color="#6CBCFC"/>
      <stop offset="1" stop-color="#458DFC"/>
    </linearGradient>
    <linearGradient id="paint9_linear_4_3642" x1="10.2915" y1="72.7052" x2="59.1364" y2="72.7052" gradientUnits="userSpaceOnUse">
      <stop stop-color="#6CBCFC"/>
      <stop offset="1" stop-color="#458DFC"/>
    </linearGradient>
    <linearGradient id="paint10_linear_4_3642" x1="10.2915" y1="81.3296" x2="59.1364" y2="81.3296" gradientUnits="userSpaceOnUse">
      <stop stop-color="#6CBCFC"/>
      <stop offset="1" stop-color="#458DFC"/>
    </linearGradient>
    <clipPath id="clip0_4_3642">
      <rect width="69.4225" height="95" fill="white"/>
    </clipPath>
  </defs>
</svg>