<svg xmlns="http://www.w3.org/2000/svg" width="80" height="72" viewBox="0 0 80 72" fill="none">
  <g clip-path="url(#clip0_4_3666)">
    <path d="M66.4749 14.0108H13.2578V71.1274H66.4749V14.0108Z" fill="url(#paint0_linear_4_3666)"/>
    <path d="M13.0376 14.0108C13.1018 14.0108 13.1661 14.0383 13.2578 14.0658C13.2578 33.068 13.2578 52.0702 13.2578 71.0999C9.13807 71.421 5.66061 70.3842 2.89882 67.7234C0.944472 65.8332 -0.000590262 63.6128 -0.000590262 61.0987C-0.000590262 52.1986 -0.000590262 43.3077 -0.000590262 34.4076C-0.000590262 31.0127 -0.00976562 27.6178 -0.00976562 24.223C-0.00976562 20.1216 2.2015 17.1396 6.26618 15.121C8.35817 14.0934 10.6795 13.9374 13.0376 14.0108Z" fill="url(#paint1_linear_4_3666)"/>
    <path d="M57.1804 14.0016C59.5568 14.0016 59.7953 14.0016 62.1626 14.0016C62.1626 33.068 62.1626 52.0702 62.1626 71.1091C46.0048 71.1091 33.7832 71.1091 17.5703 71.1091C17.5703 52.0794 17.5703 33.0772 17.5703 14.02C19.9376 14.02 20.4514 14.02 22.8645 14.02C22.8645 13.7814 22.8645 13.5979 22.8645 13.4236C22.8645 11.3775 22.8737 9.32218 22.8553 7.27607C22.837 5.84472 23.2223 4.59687 24.3417 3.62428C25.1308 2.9453 26.0392 2.59664 27.0668 2.59664C30.2507 2.58746 33.4253 2.58746 36.6092 2.58746C41.9584 2.58746 47.3168 2.59664 52.6661 2.58746C54.0699 2.58746 55.2352 3.04623 56.1527 4.11057C56.8867 4.96388 57.162 5.964 57.162 7.08339C57.1528 9.2396 57.162 11.3958 57.162 13.552C57.1528 13.6713 57.162 13.8089 57.1804 14.0016ZM28.6083 14.0016C28.8285 14.0016 28.9936 14.0016 29.1588 14.0016C31.6912 14.0016 34.2328 14.0016 36.7652 14.0016C41.4997 14.0016 46.2433 14.0016 50.9778 14.0108C51.354 14.0108 51.4366 13.8915 51.4366 13.5337C51.4182 11.928 51.4366 10.3223 51.4366 8.71661C51.4366 8.58815 51.4182 8.45969 51.3999 8.32206C43.7843 8.32206 36.2147 8.32206 28.6083 8.32206C28.6083 10.2122 28.6083 12.0656 28.6083 14.0016Z" fill="white"/>
    <mask id="mask0_4_3666" style="mask-type:alpha" maskUnits="userSpaceOnUse" x="17" y="2" width="46" height="70">
      <path d="M57.1804 14.0016C59.5568 14.0016 59.7953 14.0016 62.1626 14.0016C62.1626 33.068 62.1626 52.0702 62.1626 71.1091C46.0048 71.1091 33.7832 71.1091 17.5703 71.1091C17.5703 52.0794 17.5703 33.0772 17.5703 14.02C19.9376 14.02 20.4514 14.02 22.8645 14.02C22.8645 13.7814 22.8645 13.5979 22.8645 13.4236C22.8645 11.3775 22.8737 9.32218 22.8553 7.27607C22.837 5.84472 23.2223 4.59687 24.3417 3.62428C25.1308 2.9453 26.0392 2.59664 27.0668 2.59664C30.2507 2.58746 33.4253 2.58746 36.6092 2.58746C41.9584 2.58746 47.3168 2.59664 52.6661 2.58746C54.0699 2.58746 55.2352 3.04623 56.1527 4.11057C56.8867 4.96388 57.162 5.964 57.162 7.08339C57.1528 9.2396 57.162 11.3958 57.162 13.552C57.1528 13.6713 57.162 13.8089 57.1804 14.0016ZM28.6083 14.0016C28.8285 14.0016 28.9936 14.0016 29.1588 14.0016C31.6912 14.0016 34.2328 14.0016 36.7652 14.0016C41.4997 14.0016 46.2433 14.0016 50.9778 14.0108C51.354 14.0108 51.4366 13.8915 51.4366 13.5337C51.4182 11.928 51.4366 10.3223 51.4366 8.71661C51.4366 8.58815 51.4182 8.45969 51.3999 8.32206C43.7843 8.32206 36.2147 8.32206 28.6083 8.32206C28.6083 10.2122 28.6083 12.0656 28.6083 14.0016Z" fill="#F7F9FC"/>
    </mask>
    <g mask="url(#mask0_4_3666)">
      <path d="M58.096 0H21V14.02H58.096V0Z" fill="url(#paint2_linear_4_3666)"/>
    </g>
    <path d="M80.0005 24.0762C80.0005 20.2959 77.936 17.4791 74.2659 15.433C72.0087 14.176 69.4488 13.9374 66.8246 13.9925C66.4209 14.0016 66.476 14.2127 66.476 14.4329C66.476 21.0391 66.476 27.6362 66.476 34.2425C66.476 45.8493 66.476 57.447 66.4668 69.0538C66.4668 69.7236 66.4668 70.3934 66.4668 71.1183C68.1184 71.1733 69.6873 71.1825 71.2288 70.8155C76.4404 69.586 79.9913 65.7048 79.9913 61.1263C80.0096 48.7854 80.0005 36.4262 80.0005 24.0762Z" fill="url(#paint3_linear_4_3666)"/>
    <path d="M44.2165 46.7852C44.2165 47.9688 44.2165 49.0882 44.2165 50.2168C44.2165 51.4921 44.2165 52.7675 44.2165 54.0337C44.2165 54.7953 43.8311 55.199 43.0787 55.199C41.0051 55.2082 38.9315 55.2082 36.8578 55.199C36.1697 55.199 35.7843 54.7677 35.7843 54.0429C35.7843 51.7674 35.7843 49.4919 35.7843 47.2164C35.7843 47.088 35.7843 46.9503 35.7843 46.7852C35.61 46.7852 35.4815 46.7852 35.3439 46.7852C33.1051 46.7852 30.8571 46.7852 28.6184 46.7852C27.7283 46.7852 27.3613 46.4273 27.3613 45.5373C27.3613 43.5646 27.3613 41.5919 27.3613 39.6192C27.3613 38.72 27.7192 38.3622 28.6092 38.3622C30.8388 38.3622 33.0684 38.3622 35.298 38.3622C35.4448 38.3622 35.5825 38.3622 35.7751 38.3622C35.7751 38.2154 35.7751 38.0961 35.7751 37.9768C35.7751 35.7013 35.7751 33.4258 35.7751 31.1504C35.7751 30.3062 36.1513 29.9392 36.9955 29.9392C38.9682 29.9392 40.9409 29.9392 42.9136 29.9392C43.8403 29.9392 44.1981 30.2879 44.1981 31.2329C44.2073 33.4901 44.1981 35.738 44.1981 37.9952C44.1981 38.1053 44.1981 38.2154 44.1981 38.3714C44.3449 38.3714 44.4734 38.3714 44.5927 38.3714C46.8682 38.3714 49.1436 38.3714 51.4191 38.3805C52.2541 38.3805 52.6119 38.7476 52.6119 39.5825C52.6119 41.5644 52.6119 43.5463 52.6119 45.5282C52.6119 46.4365 52.2633 46.7852 51.3733 46.7852C49.1069 46.7852 46.8406 46.7852 44.5835 46.7944C44.4917 46.7852 44.3816 46.7852 44.2165 46.7852Z" fill="url(#paint4_linear_4_3666)"/>
  </g>
  <defs>
    <linearGradient id="paint0_linear_4_3666" x1="13.2591" y1="42.5657" x2="66.4724" y2="42.5657" gradientUnits="userSpaceOnUse">
      <stop stop-color="#B0F4FF"/>
      <stop offset="1" stop-color="#69DCFC"/>
    </linearGradient>
    <linearGradient id="paint1_linear_4_3666" x1="-0.000590261" y1="42.5747" x2="13.2591" y2="42.5747" gradientUnits="userSpaceOnUse">
      <stop stop-color="#6CBCFC"/>
      <stop offset="1" stop-color="#458DFC"/>
    </linearGradient>
    <linearGradient id="paint2_linear_4_3666" x1="20.9962" y1="7.00849" x2="58.0944" y2="7.00849" gradientUnits="userSpaceOnUse">
      <stop stop-color="#6CBCFC"/>
      <stop offset="1" stop-color="#458DFC"/>
    </linearGradient>
    <linearGradient id="paint3_linear_4_3666" x1="66.4691" y1="42.569" x2="80.0012" y2="42.569" gradientUnits="userSpaceOnUse">
      <stop stop-color="#6CBCFC"/>
      <stop offset="1" stop-color="#458DFC"/>
    </linearGradient>
    <linearGradient id="paint4_linear_4_3666" x1="27.367" y1="42.5783" x2="52.6303" y2="42.5783" gradientUnits="userSpaceOnUse">
      <stop stop-color="#6CBCFC"/>
      <stop offset="1" stop-color="#458DFC"/>
    </linearGradient>
    <clipPath id="clip0_4_3666">
      <rect width="80" height="71.1549" fill="white"/>
    </clipPath>
  </defs>
</svg>