<svg xmlns="http://www.w3.org/2000/svg" width="82" height="115" viewBox="0 0 82 115" fill="none">
  <g opacity="0.3">
    <mask id="mask0_4_3691" style="mask-type:alpha" maskUnits="userSpaceOnUse" x="10" y="0" width="12" height="11">
      <path d="M15.7909 10.425C18.6784 10.425 21.0193 8.09121 21.0193 5.21245C21.0193 2.33368 18.6784 0 15.7909 0C12.9033 0 10.5625 2.33368 10.5625 5.21245C10.5625 8.09121 12.9033 10.425 15.7909 10.425Z" fill="url(#paint0_linear_4_3691)"/>
    </mask>
    <g mask="url(#mask0_4_3691)">
      <path d="M15.7909 10.425C18.6784 10.425 21.0193 8.09121 21.0193 5.21245C21.0193 2.33368 18.6784 0 15.7909 0C12.9033 0 10.5625 2.33368 10.5625 5.21245C10.5625 8.09121 12.9033 10.425 15.7909 10.425Z" fill="url(#paint1_linear_4_3691)"/>
    </g>
    <mask id="mask1_4_3691" style="mask-type:alpha" maskUnits="userSpaceOnUse" x="40" y="0" width="12" height="11">
      <path d="M46.0712 10.425C48.9587 10.425 51.2996 8.09121 51.2996 5.21245C51.2996 2.33368 48.9587 0 46.0712 0C43.1836 0 40.8428 2.33368 40.8428 5.21245C40.8428 8.09121 43.1836 10.425 46.0712 10.425Z" fill="url(#paint2_linear_4_3691)"/>
    </mask>
    <g mask="url(#mask1_4_3691)">
      <path d="M46.0712 10.425C48.9587 10.425 51.2996 8.09121 51.2996 5.21245C51.2996 2.33368 48.9587 0 46.0712 0C43.1836 0 40.8428 2.33368 40.8428 5.21245C40.8428 8.09121 43.1836 10.425 46.0712 10.425Z" fill="url(#paint3_linear_4_3691)"/>
    </g>
    <mask id="mask2_4_3691" style="mask-type:alpha" maskUnits="userSpaceOnUse" x="71" y="0" width="11" height="11">
      <path d="M76.3524 10.425C79.24 10.425 81.5808 8.09121 81.5808 5.21245C81.5808 2.33368 79.24 0 76.3524 0C73.4648 0 71.124 2.33368 71.124 5.21245C71.124 8.09121 73.4648 10.425 76.3524 10.425Z" fill="url(#paint4_linear_4_3691)"/>
    </mask>
    <g mask="url(#mask2_4_3691)">
      <path d="M76.3524 10.425C79.24 10.425 81.5808 8.09121 81.5808 5.21245C81.5808 2.33368 79.24 0 76.3524 0C73.4648 0 71.124 2.33368 71.124 5.21245C71.124 8.09121 73.4648 10.425 76.3524 10.425Z" fill="url(#paint5_linear_4_3691)"/>
    </g>
    <mask id="mask3_4_3691" style="mask-type:alpha" maskUnits="userSpaceOnUse" x="10" y="26" width="12" height="11">
      <path d="M15.7909 36.5958C18.6784 36.5958 21.0193 34.2621 21.0193 31.3833C21.0193 28.5046 18.6784 26.1709 15.7909 26.1709C12.9033 26.1709 10.5625 28.5046 10.5625 31.3833C10.5625 34.2621 12.9033 36.5958 15.7909 36.5958Z" fill="url(#paint6_linear_4_3691)"/>
    </mask>
    <g mask="url(#mask3_4_3691)">
      <path d="M15.7909 36.5958C18.6784 36.5958 21.0193 34.2621 21.0193 31.3833C21.0193 28.5046 18.6784 26.1709 15.7909 26.1709C12.9033 26.1709 10.5625 28.5046 10.5625 31.3833C10.5625 34.2621 12.9033 36.5958 15.7909 36.5958Z" fill="url(#paint7_linear_4_3691)"/>
    </g>
    <mask id="mask4_4_3691" style="mask-type:alpha" maskUnits="userSpaceOnUse" x="40" y="26" width="12" height="11">
      <path d="M46.0712 36.5958C48.9587 36.5958 51.2996 34.2621 51.2996 31.3833C51.2996 28.5046 48.9587 26.1709 46.0712 26.1709C43.1836 26.1709 40.8428 28.5046 40.8428 31.3833C40.8428 34.2621 43.1836 36.5958 46.0712 36.5958Z" fill="url(#paint8_linear_4_3691)"/>
    </mask>
    <g mask="url(#mask4_4_3691)">
      <path d="M46.0712 36.5958C48.9587 36.5958 51.2996 34.2621 51.2996 31.3833C51.2996 28.5046 48.9587 26.1709 46.0712 26.1709C43.1836 26.1709 40.8428 28.5046 40.8428 31.3833C40.8428 34.2621 43.1836 36.5958 46.0712 36.5958Z" fill="url(#paint9_linear_4_3691)"/>
    </g>
    <mask id="mask5_4_3691" style="mask-type:alpha" maskUnits="userSpaceOnUse" x="71" y="26" width="11" height="11">
      <path d="M76.3524 36.5958C79.24 36.5958 81.5808 34.2621 81.5808 31.3833C81.5808 28.5046 79.24 26.1709 76.3524 26.1709C73.4648 26.1709 71.124 28.5046 71.124 31.3833C71.124 34.2621 73.4648 36.5958 76.3524 36.5958Z" fill="url(#paint10_linear_4_3691)"/>
    </mask>
    <g mask="url(#mask5_4_3691)">
      <path d="M76.3524 36.5958C79.24 36.5958 81.5808 34.2621 81.5808 31.3833C81.5808 28.5046 79.24 26.1709 76.3524 26.1709C73.4648 26.1709 71.124 28.5046 71.124 31.3833C71.124 34.2621 73.4648 36.5958 76.3524 36.5958Z" fill="url(#paint11_linear_4_3691)"/>
    </g>
    <mask id="mask6_4_3691" style="mask-type:alpha" maskUnits="userSpaceOnUse" x="10" y="52" width="12" height="11">
      <path d="M15.7909 62.7126C18.6784 62.7126 21.0193 60.3789 21.0193 57.5001C21.0193 54.6213 18.6784 52.2876 15.7909 52.2876C12.9033 52.2876 10.5625 54.6213 10.5625 57.5001C10.5625 60.3789 12.9033 62.7126 15.7909 62.7126Z" fill="url(#paint12_linear_4_3691)"/>
    </mask>
    <g mask="url(#mask6_4_3691)">
      <path d="M15.7909 62.7126C18.6784 62.7126 21.0193 60.3789 21.0193 57.5001C21.0193 54.6213 18.6784 52.2876 15.7909 52.2876C12.9033 52.2876 10.5625 54.6213 10.5625 57.5001C10.5625 60.3789 12.9033 62.7126 15.7909 62.7126Z" fill="url(#paint13_linear_4_3691)"/>
    </g>
    <mask id="mask7_4_3691" style="mask-type:alpha" maskUnits="userSpaceOnUse" x="40" y="52" width="12" height="11">
      <path d="M46.0712 62.7126C48.9587 62.7126 51.2996 60.3789 51.2996 57.5001C51.2996 54.6213 48.9587 52.2876 46.0712 52.2876C43.1836 52.2876 40.8428 54.6213 40.8428 57.5001C40.8428 60.3789 43.1836 62.7126 46.0712 62.7126Z" fill="url(#paint14_linear_4_3691)"/>
    </mask>
    <g mask="url(#mask7_4_3691)">
      <path d="M46.0712 62.7126C48.9587 62.7126 51.2996 60.3789 51.2996 57.5001C51.2996 54.6213 48.9587 52.2876 46.0712 52.2876C43.1836 52.2876 40.8428 54.6213 40.8428 57.5001C40.8428 60.3789 43.1836 62.7126 46.0712 62.7126Z" fill="url(#paint15_linear_4_3691)"/>
    </g>
    <mask id="mask8_4_3691" style="mask-type:alpha" maskUnits="userSpaceOnUse" x="71" y="52" width="11" height="11">
      <path d="M76.3524 62.7126C79.24 62.7126 81.5808 60.3789 81.5808 57.5001C81.5808 54.6213 79.24 52.2876 76.3524 52.2876C73.4648 52.2876 71.124 54.6213 71.124 57.5001C71.124 60.3789 73.4648 62.7126 76.3524 62.7126Z" fill="url(#paint16_linear_4_3691)"/>
    </mask>
    <g mask="url(#mask8_4_3691)">
      <path d="M76.3524 62.7126C79.24 62.7126 81.5808 60.3789 81.5808 57.5001C81.5808 54.6213 79.24 52.2876 76.3524 52.2876C73.4648 52.2876 71.124 54.6213 71.124 57.5001C71.124 60.3789 73.4648 62.7126 76.3524 62.7126Z" fill="url(#paint17_linear_4_3691)"/>
    </g>
    <mask id="mask9_4_3691" style="mask-type:alpha" maskUnits="userSpaceOnUse" x="10" y="78" width="12" height="11">
      <path d="M15.7909 88.8835C18.6784 88.8835 21.0193 86.5497 21.0193 83.6709C21.0193 80.7922 18.6784 78.4585 15.7909 78.4585C12.9033 78.4585 10.5625 80.7922 10.5625 83.6709C10.5625 86.5497 12.9033 88.8835 15.7909 88.8835Z" fill="url(#paint18_linear_4_3691)"/>
    </mask>
    <g mask="url(#mask9_4_3691)">
      <path d="M15.7909 88.8835C18.6784 88.8835 21.0193 86.5497 21.0193 83.6709C21.0193 80.7922 18.6784 78.4585 15.7909 78.4585C12.9033 78.4585 10.5625 80.7922 10.5625 83.6709C10.5625 86.5497 12.9033 88.8835 15.7909 88.8835Z" fill="url(#paint19_linear_4_3691)"/>
    </g>
    <mask id="mask10_4_3691" style="mask-type:alpha" maskUnits="userSpaceOnUse" x="40" y="78" width="12" height="11">
      <path d="M46.0712 88.8835C48.9587 88.8835 51.2996 86.5497 51.2996 83.6709C51.2996 80.7922 48.9587 78.4585 46.0712 78.4585C43.1836 78.4585 40.8428 80.7922 40.8428 83.6709C40.8428 86.5497 43.1836 88.8835 46.0712 88.8835Z" fill="url(#paint20_linear_4_3691)"/>
    </mask>
    <g mask="url(#mask10_4_3691)">
      <path d="M46.0712 88.8835C48.9587 88.8835 51.2996 86.5497 51.2996 83.6709C51.2996 80.7922 48.9587 78.4585 46.0712 78.4585C43.1836 78.4585 40.8428 80.7922 40.8428 83.6709C40.8428 86.5497 43.1836 88.8835 46.0712 88.8835Z" fill="url(#paint21_linear_4_3691)"/>
    </g>
    <mask id="mask11_4_3691" style="mask-type:alpha" maskUnits="userSpaceOnUse" x="71" y="78" width="11" height="11">
      <path d="M76.3524 88.8835C79.24 88.8835 81.5808 86.5497 81.5808 83.6709C81.5808 80.7922 79.24 78.4585 76.3524 78.4585C73.4648 78.4585 71.124 80.7922 71.124 83.6709C71.124 86.5497 73.4648 88.8835 76.3524 88.8835Z" fill="url(#paint22_linear_4_3691)"/>
    </mask>
    <g mask="url(#mask11_4_3691)">
      <path d="M76.3524 88.8835C79.24 88.8835 81.5808 86.5497 81.5808 83.6709C81.5808 80.7922 79.24 78.4585 76.3524 78.4585C73.4648 78.4585 71.124 80.7922 71.124 83.6709C71.124 86.5497 73.4648 88.8835 76.3524 88.8835Z" fill="url(#paint23_linear_4_3691)"/>
    </g>
    <mask id="mask12_4_3691" style="mask-type:alpha" maskUnits="userSpaceOnUse" x="10" y="104" width="12" height="11">
      <path d="M15.7909 115C18.6784 115 21.0193 112.666 21.0193 109.787C21.0193 106.909 18.6784 104.575 15.7909 104.575C12.9033 104.575 10.5625 106.909 10.5625 109.787C10.5625 112.666 12.9033 115 15.7909 115Z" fill="url(#paint24_linear_4_3691)"/>
    </mask>
    <g mask="url(#mask12_4_3691)">
      <path d="M15.7909 115C18.6784 115 21.0193 112.666 21.0193 109.787C21.0193 106.909 18.6784 104.575 15.7909 104.575C12.9033 104.575 10.5625 106.909 10.5625 109.787C10.5625 112.666 12.9033 115 15.7909 115Z" fill="url(#paint25_linear_4_3691)"/>
    </g>
    <mask id="mask13_4_3691" style="mask-type:alpha" maskUnits="userSpaceOnUse" x="40" y="104" width="12" height="11">
      <path d="M46.0712 115C48.9587 115 51.2996 112.666 51.2996 109.787C51.2996 106.909 48.9587 104.575 46.0712 104.575C43.1836 104.575 40.8428 106.909 40.8428 109.787C40.8428 112.666 43.1836 115 46.0712 115Z" fill="url(#paint26_linear_4_3691)"/>
    </mask>
    <g mask="url(#mask13_4_3691)">
      <path d="M46.0712 115C48.9587 115 51.2996 112.666 51.2996 109.787C51.2996 106.909 48.9587 104.575 46.0712 104.575C43.1836 104.575 40.8428 106.909 40.8428 109.787C40.8428 112.666 43.1836 115 46.0712 115Z" fill="url(#paint27_linear_4_3691)"/>
    </g>
    <mask id="mask14_4_3691" style="mask-type:alpha" maskUnits="userSpaceOnUse" x="71" y="104" width="11" height="11">
      <path d="M76.3524 115C79.24 115 81.5808 112.666 81.5808 109.787C81.5808 106.909 79.24 104.575 76.3524 104.575C73.4648 104.575 71.124 106.909 71.124 109.787C71.124 112.666 73.4648 115 76.3524 115Z" fill="url(#paint28_linear_4_3691)"/>
    </mask>
    <g mask="url(#mask14_4_3691)">
      <path d="M76.3524 115C79.24 115 81.5808 112.666 81.5808 109.787C81.5808 106.909 79.24 104.575 76.3524 104.575C73.4648 104.575 71.124 106.909 71.124 109.787C71.124 112.666 73.4648 115 76.3524 115Z" fill="url(#paint29_linear_4_3691)"/>
    </g>
  </g>
  <defs>
    <linearGradient id="paint0_linear_4_3691" x1="57.4053" y1="110.551" x2="-13.9963" y2="-71.2526" gradientUnits="userSpaceOnUse">
      <stop/>
      <stop offset="1" stop-color="white"/>
    </linearGradient>
    <linearGradient id="paint1_linear_4_3691" x1="57.4053" y1="110.551" x2="-13.9963" y2="-71.2526" gradientUnits="userSpaceOnUse">
      <stop stop-color="#97C3F9"/>
      <stop offset="1" stop-color="#93C1F9"/>
    </linearGradient>
    <linearGradient id="paint2_linear_4_3691" x1="83.6087" y1="100.259" x2="12.2071" y2="-81.5444" gradientUnits="userSpaceOnUse">
      <stop/>
      <stop offset="1" stop-color="white"/>
    </linearGradient>
    <linearGradient id="paint3_linear_4_3691" x1="83.6087" y1="100.259" x2="12.2071" y2="-81.5444" gradientUnits="userSpaceOnUse">
      <stop stop-color="#97C3F9"/>
      <stop offset="1" stop-color="#93C1F9"/>
    </linearGradient>
    <linearGradient id="paint4_linear_4_3691" x1="109.813" y1="89.9679" x2="38.4116" y2="-91.8359" gradientUnits="userSpaceOnUse">
      <stop/>
      <stop offset="1" stop-color="white"/>
    </linearGradient>
    <linearGradient id="paint5_linear_4_3691" x1="109.813" y1="89.9679" x2="38.4116" y2="-91.8359" gradientUnits="userSpaceOnUse">
      <stop stop-color="#97C3F9"/>
      <stop offset="1" stop-color="#93C1F9"/>
    </linearGradient>
    <linearGradient id="paint6_linear_4_3691" x1="48.4628" y1="114.062" x2="-22.9376" y2="-67.7404" gradientUnits="userSpaceOnUse">
      <stop/>
      <stop offset="1" stop-color="white"/>
    </linearGradient>
    <linearGradient id="paint7_linear_4_3691" x1="48.4628" y1="114.062" x2="-22.9376" y2="-67.7404" gradientUnits="userSpaceOnUse">
      <stop stop-color="#97C3F9"/>
      <stop offset="1" stop-color="#93C1F9"/>
    </linearGradient>
    <linearGradient id="paint8_linear_4_3691" x1="74.6663" y1="103.771" x2="3.26591" y2="-78.0318" gradientUnits="userSpaceOnUse">
      <stop/>
      <stop offset="1" stop-color="white"/>
    </linearGradient>
    <linearGradient id="paint9_linear_4_3691" x1="74.6663" y1="103.771" x2="3.26591" y2="-78.0318" gradientUnits="userSpaceOnUse">
      <stop stop-color="#97C3F9"/>
      <stop offset="1" stop-color="#93C1F9"/>
    </linearGradient>
    <linearGradient id="paint10_linear_4_3691" x1="100.871" y1="93.4793" x2="29.4705" y2="-88.3232" gradientUnits="userSpaceOnUse">
      <stop/>
      <stop offset="1" stop-color="white"/>
    </linearGradient>
    <linearGradient id="paint11_linear_4_3691" x1="100.871" y1="93.4793" x2="29.4705" y2="-88.3232" gradientUnits="userSpaceOnUse">
      <stop stop-color="#97C3F9"/>
      <stop offset="1" stop-color="#93C1F9"/>
    </linearGradient>
    <linearGradient id="paint12_linear_4_3691" x1="39.5204" y1="117.575" x2="-31.8811" y2="-64.2287" gradientUnits="userSpaceOnUse">
      <stop/>
      <stop offset="1" stop-color="white"/>
    </linearGradient>
    <linearGradient id="paint13_linear_4_3691" x1="39.5204" y1="117.575" x2="-31.8811" y2="-64.2287" gradientUnits="userSpaceOnUse">
      <stop stop-color="#97C3F9"/>
      <stop offset="1" stop-color="#93C1F9"/>
    </linearGradient>
    <linearGradient id="paint14_linear_4_3691" x1="65.7239" y1="107.283" x2="-5.6777" y2="-74.5204" gradientUnits="userSpaceOnUse">
      <stop/>
      <stop offset="1" stop-color="white"/>
    </linearGradient>
    <linearGradient id="paint15_linear_4_3691" x1="65.7239" y1="107.283" x2="-5.6777" y2="-74.5204" gradientUnits="userSpaceOnUse">
      <stop stop-color="#97C3F9"/>
      <stop offset="1" stop-color="#93C1F9"/>
    </linearGradient>
    <linearGradient id="paint16_linear_4_3691" x1="91.9285" y1="96.992" x2="20.5268" y2="-84.8119" gradientUnits="userSpaceOnUse">
      <stop/>
      <stop offset="1" stop-color="white"/>
    </linearGradient>
    <linearGradient id="paint17_linear_4_3691" x1="91.9285" y1="96.992" x2="20.5268" y2="-84.8119" gradientUnits="userSpaceOnUse">
      <stop stop-color="#97C3F9"/>
      <stop offset="1" stop-color="#93C1F9"/>
    </linearGradient>
    <linearGradient id="paint18_linear_4_3691" x1="30.578" y1="121.087" x2="-40.8235" y2="-60.7167" gradientUnits="userSpaceOnUse">
      <stop/>
      <stop offset="1" stop-color="white"/>
    </linearGradient>
    <linearGradient id="paint19_linear_4_3691" x1="30.578" y1="121.087" x2="-40.8235" y2="-60.7167" gradientUnits="userSpaceOnUse">
      <stop stop-color="#97C3F9"/>
      <stop offset="1" stop-color="#93C1F9"/>
    </linearGradient>
    <linearGradient id="paint20_linear_4_3691" x1="56.7816" y1="110.796" x2="-14.6201" y2="-71.0083" gradientUnits="userSpaceOnUse">
      <stop/>
      <stop offset="1" stop-color="white"/>
    </linearGradient>
    <linearGradient id="paint21_linear_4_3691" x1="56.7816" y1="110.796" x2="-14.6201" y2="-71.0083" gradientUnits="userSpaceOnUse">
      <stop stop-color="#97C3F9"/>
      <stop offset="1" stop-color="#93C1F9"/>
    </linearGradient>
    <linearGradient id="paint22_linear_4_3691" x1="82.9861" y1="100.504" x2="11.5845" y2="-81.2999" gradientUnits="userSpaceOnUse">
      <stop/>
      <stop offset="1" stop-color="white"/>
    </linearGradient>
    <linearGradient id="paint23_linear_4_3691" x1="82.9861" y1="100.504" x2="11.5845" y2="-81.2999" gradientUnits="userSpaceOnUse">
      <stop stop-color="#97C3F9"/>
      <stop offset="1" stop-color="#93C1F9"/>
    </linearGradient>
    <linearGradient id="paint24_linear_4_3691" x1="21.6357" y1="124.599" x2="-49.7659" y2="-57.2048" gradientUnits="userSpaceOnUse">
      <stop/>
      <stop offset="1" stop-color="white"/>
    </linearGradient>
    <linearGradient id="paint25_linear_4_3691" x1="21.6357" y1="124.599" x2="-49.7659" y2="-57.2048" gradientUnits="userSpaceOnUse">
      <stop stop-color="#97C3F9"/>
      <stop offset="1" stop-color="#93C1F9"/>
    </linearGradient>
    <linearGradient id="paint26_linear_4_3691" x1="47.8392" y1="114.307" x2="-23.5624" y2="-67.4964" gradientUnits="userSpaceOnUse">
      <stop/>
      <stop offset="1" stop-color="white"/>
    </linearGradient>
    <linearGradient id="paint27_linear_4_3691" x1="47.8392" y1="114.307" x2="-23.5624" y2="-67.4964" gradientUnits="userSpaceOnUse">
      <stop stop-color="#97C3F9"/>
      <stop offset="1" stop-color="#93C1F9"/>
    </linearGradient>
    <linearGradient id="paint28_linear_4_3691" x1="74.0438" y1="104.016" x2="2.64213" y2="-77.7879" gradientUnits="userSpaceOnUse">
      <stop/>
      <stop offset="1" stop-color="white"/>
    </linearGradient>
    <linearGradient id="paint29_linear_4_3691" x1="74.0438" y1="104.016" x2="2.64213" y2="-77.7879" gradientUnits="userSpaceOnUse">
      <stop stop-color="#97C3F9"/>
      <stop offset="1" stop-color="#93C1F9"/>
    </linearGradient>
  </defs>
</svg>